<svg width="12" height="16" viewBox="0 0 12 16" fill="none" xmlns="http://www.w3.org/2000/svg">
<path d="M7.33333 1.33334V4.00001C7.33333 4.35363 7.47381 4.69277 7.72386 4.94282C7.97391 5.19287 8.31304 5.33334 8.66667 5.33334H11.3333M4 10L5.33333 11.3333L8 8.66668M8 1.33334H2C1.64638 1.33334 1.30724 1.47382 1.05719 1.72387C0.807142 1.97392 0.666666 2.31305 0.666666 2.66668V13.3333C0.666666 13.687 0.807142 14.0261 1.05719 14.2762C1.30724 14.5262 1.64638 14.6667 2 14.6667H10C10.3536 14.6667 10.6928 14.5262 10.9428 14.2762C11.1929 14.0261 11.3333 13.687 11.3333 13.3333V4.66668L8 1.33334Z" stroke="#71717A" stroke-width="1.33" stroke-linecap="round" stroke-linejoin="round"/>
</svg>
